<?xml version="1.0" encoding="UTF-8" standalone="no"?><!DOCTYPE svg PUBLIC "-//W3C//DTD SVG 1.1//EN" "http://www.w3.org/Graphics/SVG/1.1/DTD/svg11.dtd">
<svg width="100%" height="100%" viewBox="0 0 240 240" version="1.1" 
  xmlns="http://www.w3.org/2000/svg" 
  xmlns:xlink="http://www.w3.org/1999/xlink" xml:space="preserve" 
  style="fill-rule:evenodd;clip-rule:evenodd;stroke-linejoin:round;stroke-miterlimit:2;">
  <circle cx="120" cy="120" r="120" style="fill:#f8bd05;"/>
  <clipPath id="_clip1">
    <circle cx="120" cy="120" r="120"/>
  </clipPath>
  <g clip-path="url(#_clip1)">
    <path d="M65.797,240c-1.668,-12.182 -12.247,-90.856 -9.39,-105.709c2.001,-10.409 6.272,-21.953 12.811,-21.619c6.539,0.334 19.593,24.824 28.425,24.021c8.808,-0.8 17.748,-7.528 29.417,-10.064c9.208,-2.002 17.199,-2.269 28.634,-3.948c14.36,-2.109 11.66,-30.157 28.825,-32.429c20.276,-2.683 14.199,66.196 36.832,79.67c1.609,0.958 4.422,3.186 5.689,4.078l0,66l-161.243,0Z"/>
    <ellipse cx="99.911" cy="181.429" rx="19.105" ry="18.099" style="fill:#fff;"/>
    <ellipse cx="164.264" cy="172.379" rx="18.602" ry="17.094" style="fill:#fff;"/>
    <ellipse cx="158.985" cy="168.106" rx="8.295" ry="8.044"/>
    <ellipse cx="94.381" cy="176.709" rx="7.541" ry="8.044"/>
  </g>
  <path d="M17.834,112.261c-0.671,-1.813 -1.325,-3.811 -1.962,-5.994c-0.638,-2.182 -1.183,-4.23 -1.636,-6.143c-0.724,-3.052 -1.315,-6.003 -1.774,-8.853c-0.458,-2.85 -0.904,-5.848 -1.337,-8.993c-0.432,-3.145 -0.895,-6.571 -1.389,-10.279c-0.494,-3.708 -1.166,-7.963 -2.015,-12.765c0.592,-0.141 1.487,-0.172 2.684,-0.095c1.197,0.077 2.419,0.208 3.666,0.394c1.246,0.186 2.359,0.415 3.338,0.688c0.979,0.274 1.574,0.553 1.787,0.84c-0.354,1.96 -0.495,4.459 -0.425,7.498c0.071,3.038 0.306,6.314 0.705,9.828c0.4,3.513 0.912,7.096 1.537,10.749c0.626,3.653 1.31,7.051 2.055,10.194c0.346,1.457 0.709,2.887 1.089,4.288c0.38,1.402 0.756,2.684 1.128,3.847c0.622,-1.639 1.249,-3.917 1.881,-6.833c0.632,-2.916 1.236,-6.151 1.814,-9.703c0.577,-3.553 1.119,-7.254 1.627,-11.103c0.507,-3.848 0.949,-7.513 1.327,-10.995c0.378,-3.481 0.66,-6.603 0.848,-9.366c0.187,-2.762 0.284,-4.842 0.289,-6.239c0.593,-0.14 1.51,-0.177 2.752,-0.111c1.243,0.067 2.476,0.195 3.7,0.387c1.224,0.191 2.326,0.423 3.305,0.696c0.978,0.273 1.551,0.558 1.718,0.856c-0.354,1.96 -0.495,4.459 -0.424,7.497c0.07,3.039 0.305,6.315 0.705,9.828c0.399,3.514 0.912,7.097 1.537,10.75c0.625,3.652 1.31,7.05 2.055,10.193c0.313,1.321 0.634,2.628 0.965,3.921c0.33,1.293 0.665,2.453 1.004,3.479c0.562,-4.127 1.189,-8.232 1.881,-12.317c0.692,-4.085 1.41,-8.008 2.154,-11.769c0.745,-3.761 1.498,-7.283 2.259,-10.566c0.762,-3.284 1.485,-6.222 2.17,-8.814c0.685,-2.591 1.304,-4.747 1.859,-6.466c0.555,-1.719 1.024,-2.889 1.406,-3.509c1.08,-0.111 2.251,0.008 3.513,0.359c1.262,0.35 2.439,0.901 3.531,1.653c-1.073,1.361 -2.169,3.436 -3.288,6.227c-1.118,2.791 -2.193,5.969 -3.225,9.533c-1.032,3.564 -2.026,7.336 -2.984,11.316c-0.957,3.979 -1.811,7.838 -2.561,11.576c-0.75,3.738 -1.383,7.207 -1.899,10.409c-0.517,3.201 -0.883,5.766 -1.1,7.694c-1.055,0.827 -2.151,1.375 -3.29,1.645c-1.501,0.164 -2.965,0.126 -4.393,-0.113c-1.428,-0.239 -2.507,-0.681 -3.237,-1.326c-0.31,-0.697 -0.626,-1.524 -0.949,-2.481c-0.323,-0.958 -0.621,-1.91 -0.893,-2.856c-0.272,-0.946 -0.525,-1.86 -0.759,-2.743c-0.233,-0.883 -0.425,-1.643 -0.576,-2.281c-0.961,-4.054 -1.781,-8.226 -2.461,-12.515c-0.679,-4.289 -1.364,-8.902 -2.052,-13.839c-0.314,3.346 -0.688,6.947 -1.121,10.802c-0.433,3.856 -0.932,7.69 -1.496,11.504c-0.563,3.814 -1.187,7.474 -1.872,10.98c-0.685,3.506 -1.435,6.583 -2.251,9.23c-1.055,0.827 -2.152,1.376 -3.291,1.646c-1.5,0.163 -2.965,0.125 -4.393,-0.114c-1.427,-0.239 -2.506,-0.681 -3.236,-1.326Z" style="fill-rule:nonzero;"/>
  <path d="M87.251,64.419c0.455,-0.108 1.009,-0.155 1.662,-0.142c0.653,0.014 1.259,0.087 1.82,0.219c0.56,0.131 1.044,0.294 1.45,0.486c0.407,0.192 0.637,0.402 0.691,0.63c-0.458,2.129 -0.845,4.254 -1.16,6.373c-0.316,2.12 -0.536,4.132 -0.662,6.038c-0.126,1.907 -0.153,3.669 -0.082,5.288c0.071,1.619 0.241,2.998 0.511,4.137c0.302,1.275 0.69,2.302 1.163,3.08c0.473,0.778 1.072,1.274 1.796,1.487c-0.461,0.494 -1.097,0.957 -1.908,1.39c-0.812,0.433 -1.559,0.73 -2.242,0.892c-2.46,0.583 -4.09,-0.811 -4.888,-4.182c-0.616,-2.596 -0.592,-6.355 0.07,-11.274c-0.416,2.302 -0.999,4.512 -1.748,6.629c-0.749,2.118 -1.572,4.026 -2.469,5.723c-0.897,1.698 -1.867,3.137 -2.91,4.318c-1.043,1.182 -2.067,1.987 -3.072,2.417c-1.685,0.399 -3.233,-0.043 -4.644,-1.327c-1.411,-1.284 -2.398,-3.116 -2.962,-5.495c-0.607,-2.561 -0.7,-5.39 -0.279,-8.485c0.422,-3.095 1.199,-6.057 2.333,-8.886c1.133,-2.83 2.51,-5.294 4.129,-7.393c1.62,-2.099 3.364,-3.37 5.231,-3.812c0.488,0.029 1.065,0.18 1.732,0.454c0.666,0.274 1.326,0.621 1.979,1.042c0.653,0.422 1.229,0.873 1.728,1.355c0.499,0.481 0.82,0.921 0.962,1.32c-1.757,0.704 -3.427,2.036 -5.007,3.994c-1.581,1.958 -2.906,4.181 -3.977,6.666c-1.071,2.486 -1.822,5.052 -2.254,7.698c-0.431,2.646 -0.399,5.014 0.096,7.105c0.205,0.863 0.653,1.333 1.345,1.409c1.256,-0.587 2.515,-2.076 3.776,-4.468c1.262,-2.391 2.631,-5.951 4.109,-10.68c0.261,-0.928 0.557,-1.96 0.889,-3.097c0.332,-1.137 0.665,-2.323 0.998,-3.556c0.333,-1.234 0.652,-2.476 0.957,-3.727c0.305,-1.251 0.584,-2.46 0.837,-3.626Z" style="fill-rule:nonzero;"/>
  <path d="M111.37,62.961c2.531,-4.545 4.655,-9.234 6.373,-14.067c1.717,-4.833 3.116,-10.144 4.198,-15.934c1.217,-0.144 2.431,-0.095 3.643,0.147c1.212,0.242 2.213,0.607 3.002,1.093c-1.793,3.601 -3.412,6.871 -4.856,9.811c-1.444,2.94 -2.753,5.692 -3.925,8.255c-1.173,2.563 -2.242,5.006 -3.207,7.327c-0.966,2.322 -1.894,4.647 -2.786,6.975c-0.133,2.485 -0.214,4.982 -0.245,7.491c-0.031,2.509 -0.018,4.9 0.039,7.171c0.057,2.272 0.179,4.36 0.366,6.264c0.187,1.905 0.437,3.517 0.75,4.838c-0.502,0.119 -1.323,0.206 -2.465,0.26c-1.142,0.054 -2.314,0.079 -3.518,0.076c-1.204,-0.004 -2.305,-0.032 -3.303,-0.084c-0.999,-0.052 -1.611,-0.147 -1.836,-0.286c0.437,-1.403 0.796,-3.087 1.075,-5.054c0.28,-1.967 0.527,-4.022 0.74,-6.165c0.214,-2.144 0.4,-4.305 0.557,-6.483c0.157,-2.178 0.304,-4.198 0.441,-6.058c-1.981,-3.283 -3.876,-6.358 -5.686,-9.225c-1.81,-2.867 -3.516,-5.445 -5.117,-7.736c-1.601,-2.291 -3.074,-4.239 -4.416,-5.846c-1.343,-1.606 -2.538,-2.79 -3.585,-3.552c0.412,-0.294 1.063,-0.644 1.952,-1.052c0.89,-0.407 1.871,-0.835 2.943,-1.286c1.072,-0.451 2.175,-0.872 3.309,-1.263c1.134,-0.391 2.157,-0.695 3.068,-0.911c0.269,1.138 0.701,2.501 1.294,4.09c0.593,1.589 1.281,3.276 2.065,5.06c0.783,1.785 1.63,3.578 2.538,5.381c0.908,1.804 1.779,3.447 2.612,4.932c0.833,1.484 1.603,2.755 2.311,3.812c0.707,1.058 1.264,1.731 1.669,2.019Z" style="fill-rule:nonzero;"/>
  <path d="M144.784,50.785c0.456,-0.108 1.01,-0.155 1.663,-0.141c0.652,0.013 1.259,0.086 1.819,0.218c0.561,0.132 1.044,0.294 1.451,0.486c0.406,0.192 0.636,0.402 0.69,0.63c-0.457,2.129 -0.844,4.254 -1.16,6.373c-0.315,2.12 -0.536,4.133 -0.662,6.039c-0.125,1.906 -0.153,3.668 -0.082,5.287c0.071,1.619 0.242,2.998 0.512,4.137c0.302,1.275 0.689,2.302 1.162,3.08c0.473,0.778 1.072,1.274 1.796,1.487c-0.46,0.494 -1.096,0.957 -1.908,1.39c-0.811,0.433 -1.559,0.73 -2.242,0.892c-2.46,0.583 -4.089,-0.811 -4.888,-4.182c-0.615,-2.596 -0.592,-6.354 0.071,-11.274c-0.417,2.302 -1,4.512 -1.749,6.629c-0.749,2.118 -1.572,4.026 -2.469,5.723c-0.896,1.698 -1.866,3.137 -2.909,4.319c-1.044,1.181 -2.067,1.986 -3.072,2.416c-1.686,0.399 -3.234,-0.043 -4.645,-1.327c-1.41,-1.284 -2.398,-3.116 -2.961,-5.494c-0.608,-2.562 -0.7,-5.39 -0.279,-8.486c0.421,-3.095 1.198,-6.057 2.332,-8.886c1.134,-2.83 2.51,-5.294 4.13,-7.393c1.619,-2.099 3.363,-3.369 5.231,-3.812c0.488,0.029 1.065,0.18 1.731,0.454c0.666,0.274 1.326,0.622 1.979,1.043c0.653,0.421 1.229,0.872 1.728,1.354c0.499,0.481 0.82,0.921 0.963,1.32c-1.758,0.704 -3.427,2.036 -5.008,3.994c-1.58,1.959 -2.906,4.181 -3.977,6.666c-1.071,2.486 -1.822,5.052 -2.253,7.698c-0.431,2.646 -0.399,5.014 0.096,7.105c0.204,0.863 0.653,1.333 1.344,1.409c1.256,-0.587 2.515,-2.076 3.777,-4.467c1.261,-2.392 2.631,-5.952 4.108,-10.68c0.261,-0.928 0.558,-1.961 0.89,-3.098c0.332,-1.137 0.664,-2.322 0.997,-3.556c0.334,-1.234 0.653,-2.476 0.957,-3.727c0.305,-1.251 0.584,-2.46 0.837,-3.626Z" style="fill-rule:nonzero;"/>
  <path d="M159.966,62.775c-0.291,-1.23 -0.385,-3.096 -0.28,-5.598c0.104,-2.503 0.343,-5.302 0.716,-8.397c0.373,-3.096 0.861,-6.314 1.464,-9.657c0.604,-3.342 1.264,-6.493 1.982,-9.454c0.718,-2.961 1.462,-5.554 2.233,-7.782c0.771,-2.227 1.537,-3.768 2.297,-4.622c0.761,-0.036 1.625,0.108 2.592,0.433c0.967,0.324 1.893,0.73 2.778,1.217c0.886,0.488 1.688,1.032 2.407,1.631c0.72,0.599 1.19,1.162 1.41,1.687c-1.87,2.463 -3.606,5.389 -5.209,8.776c-1.603,3.386 -2.962,7.04 -4.078,10.961c-1.115,3.921 -1.935,8.024 -2.459,12.31c-0.524,4.286 -0.665,8.565 -0.422,12.837c-0.579,-0.007 -1.155,-0.051 -1.727,-0.132c-0.573,-0.081 -1.084,-0.26 -1.535,-0.538c-0.451,-0.278 -0.866,-0.709 -1.244,-1.293c-0.379,-0.584 -0.688,-1.377 -0.925,-2.379Zm2.788,18.464c-0.547,0.129 -1.101,0.128 -1.661,-0.004c-0.56,-0.131 -1.075,-0.322 -1.543,-0.572c-0.468,-0.25 -0.862,-0.542 -1.181,-0.875c-0.32,-0.333 -0.507,-0.614 -0.561,-0.841c-0.129,-0.547 -0.228,-1.269 -0.297,-2.167c-0.068,-0.898 -0.06,-1.778 0.024,-2.64c0.085,-0.862 0.264,-1.626 0.539,-2.293c0.276,-0.666 0.664,-1.059 1.165,-1.178c1.275,-0.302 2.667,-0.163 4.176,0.418c1.509,0.581 2.712,1.342 3.608,2.284c-0.406,0.722 -0.725,1.507 -0.957,2.356c-0.232,0.849 -0.474,1.652 -0.728,2.41c-0.253,0.757 -0.577,1.423 -0.97,1.997c-0.393,0.575 -0.931,0.943 -1.614,1.105Z" style="fill-rule:nonzero;"/>
  <path d="M180.465,57.918c-0.292,-1.23 -0.385,-3.097 -0.28,-5.599c0.104,-2.503 0.343,-5.302 0.716,-8.397c0.373,-3.095 0.861,-6.314 1.464,-9.656c0.603,-3.343 1.264,-6.494 1.982,-9.455c0.717,-2.96 1.462,-5.554 2.233,-7.782c0.771,-2.227 1.537,-3.768 2.297,-4.621c0.761,-0.036 1.625,0.108 2.592,0.432c0.967,0.324 1.893,0.73 2.778,1.218c0.885,0.488 1.688,1.031 2.407,1.63c0.72,0.6 1.19,1.162 1.41,1.687c-1.87,2.464 -3.606,5.389 -5.209,8.776c-1.603,3.387 -2.962,7.04 -4.078,10.961c-1.115,3.921 -1.935,8.024 -2.459,12.31c-0.524,4.286 -0.665,8.565 -0.422,12.838c-0.579,-0.008 -1.155,-0.052 -1.727,-0.132c-0.573,-0.081 -1.084,-0.261 -1.535,-0.539c-0.451,-0.278 -0.866,-0.709 -1.245,-1.293c-0.378,-0.583 -0.687,-1.376 -0.924,-2.378Zm2.788,18.463c-0.547,0.13 -1.101,0.129 -1.661,-0.003c-0.561,-0.132 -1.075,-0.323 -1.543,-0.573c-0.468,-0.25 -0.862,-0.541 -1.182,-0.875c-0.319,-0.333 -0.506,-0.613 -0.56,-0.841c-0.129,-0.547 -0.228,-1.269 -0.297,-2.167c-0.068,-0.898 -0.06,-1.778 0.024,-2.64c0.085,-0.861 0.264,-1.626 0.539,-2.292c0.275,-0.667 0.663,-1.06 1.165,-1.178c1.275,-0.303 2.667,-0.163 4.176,0.417c1.509,0.581 2.711,1.342 3.608,2.284c-0.406,0.722 -0.725,1.507 -0.957,2.356c-0.232,0.849 -0.475,1.652 -0.728,2.41c-0.253,0.758 -0.577,1.424 -0.97,1.998c-0.393,0.574 -0.931,0.942 -1.614,1.104Z" style="fill-rule:nonzero;"/>
  <path d="M200.964,53.06c-0.292,-1.23 -0.385,-3.096 -0.281,-5.599c0.105,-2.502 0.344,-5.301 0.717,-8.397c0.373,-3.095 0.861,-6.314 1.464,-9.656c0.603,-3.342 1.264,-6.494 1.981,-9.454c0.718,-2.961 1.463,-5.555 2.234,-7.782c0.771,-2.228 1.536,-3.768 2.296,-4.622c0.762,-0.036 1.626,0.108 2.593,0.432c0.966,0.324 1.893,0.73 2.778,1.218c0.885,0.488 1.688,1.031 2.407,1.631c0.719,0.599 1.189,1.161 1.41,1.686c-1.87,2.464 -3.606,5.389 -5.209,8.776c-1.603,3.387 -2.962,7.041 -4.078,10.962c-1.116,3.92 -1.935,8.024 -2.459,12.309c-0.524,4.286 -0.665,8.565 -0.422,12.838c-0.579,-0.007 -1.155,-0.051 -1.727,-0.132c-0.573,-0.081 -1.084,-0.26 -1.535,-0.538c-0.451,-0.279 -0.866,-0.709 -1.245,-1.293c-0.379,-0.584 -0.687,-1.377 -0.924,-2.379Zm2.787,18.463c-0.546,0.13 -1.1,0.129 -1.66,-0.003c-0.561,-0.132 -1.075,-0.323 -1.543,-0.572c-0.468,-0.25 -0.862,-0.542 -1.182,-0.875c-0.319,-0.333 -0.506,-0.614 -0.56,-0.842c-0.129,-0.546 -0.228,-1.269 -0.297,-2.166c-0.068,-0.898 -0.06,-1.778 0.024,-2.64c0.084,-0.862 0.264,-1.626 0.539,-2.293c0.275,-0.667 0.663,-1.059 1.164,-1.178c1.276,-0.302 2.668,-0.163 4.177,0.418c1.509,0.58 2.711,1.342 3.608,2.284c-0.406,0.722 -0.725,1.507 -0.957,2.356c-0.232,0.848 -0.475,1.652 -0.728,2.409c-0.254,0.758 -0.577,1.424 -0.97,1.998c-0.393,0.574 -0.931,0.943 -1.615,1.104Z" style="fill-rule:nonzero;"/>
</svg>